<svg width="228" height="32" viewBox="0 0 228 32" fill="none" xmlns="http://www.w3.org/2000/svg">
<path d="M4.84961 0.207031C7.51417 0.207073 9.69922 2.39208 9.69922 5.05664V26.5596C9.69922 29.2241 7.51417 31.4091 4.84961 31.4092C2.18502 31.4092 0 29.2508 0 26.5596V5.05664C0 2.39205 2.18502 0.207031 4.84961 0.207031ZM37.1172 0C39.915 0 42.1533 2.23831 42.1533 5.03613C42.1533 18.9719 31.362 30.3493 17.666 31.3086C16.7068 31.2553 15.934 30.5625 15.8008 29.6299V22.8623C15.9074 22.0097 16.5734 21.3432 17.3994 21.21C25.633 20.4106 32.0547 13.4829 32.0547 5.03613C32.0547 2.35163 34.1553 0.142406 36.8301 0.00683594L37.1172 0ZM146.209 4.37109C147.701 4.37128 148.927 5.57045 148.927 7.0625C148.927 8.55448 147.701 9.75372 146.209 9.75391H138.401C136.393 9.75392 134.663 11.0764 133.815 13.0039H142.663C144.155 13.0039 145.354 14.2031 145.354 15.6953C145.354 17.1874 144.155 18.3867 142.663 18.3867H133.82C134.674 20.3145 136.411 21.6377 138.401 21.6377H146.209C147.701 21.6379 148.927 22.837 148.927 24.3291C148.927 25.8211 147.701 27.0467 146.209 27.0469L138.401 27.0205C132.566 27.0205 127.85 21.9304 127.85 15.6953C127.85 9.46032 132.566 4.37112 138.401 4.37109H146.209ZM73.0898 4.33984C74.582 4.33984 75.7812 5.53908 75.7812 7.03125V15.7178C75.7812 21.9795 71.0383 27.042 65.2295 27.042C59.3941 27.042 54.6778 21.9529 54.6777 15.7178V7.03125C54.6777 5.53911 55.9034 4.33989 57.3955 4.33984C58.8877 4.33984 60.0869 5.53908 60.0869 7.03125V15.7178C60.087 18.9952 62.4051 21.6602 65.2295 21.6602C68.0539 21.6602 70.372 18.9952 70.3721 15.7178V7.03125C70.3721 5.53914 71.5978 4.33994 73.0898 4.33984ZM114.365 4.33984C120.174 4.33984 124.917 9.42906 124.917 15.6641C124.917 21.8992 120.174 26.9893 114.365 26.9893L106.559 27.0156C105.066 27.0156 103.867 25.7899 103.867 24.2979V7.03125C103.867 5.53908 105.066 4.33984 106.559 4.33984H114.365ZM162.91 4.33984C168.186 4.33984 171.357 7.51094 171.357 12.8135C171.357 15.9636 170.237 18.3606 168.223 19.7881L170.668 22.4834C171.68 23.5759 171.601 25.2814 170.481 26.2939C169.975 26.7735 169.309 26.9873 168.67 26.9873L168.372 26.9736C167.74 26.9094 167.111 26.6203 166.645 26.1074L162.272 21.2871H157.795V24.2705C157.795 25.7625 156.569 26.989 155.077 26.9893L154.827 26.9746C153.466 26.8373 152.412 25.6944 152.412 24.2705V7.03125C152.412 5.53908 153.638 4.33984 155.104 4.33984H162.91ZM185.346 4.33984C190.648 4.33984 193.793 7.51094 193.793 12.8135C193.793 18.1159 190.648 21.2871 185.346 21.2871H180.257V24.2705C180.257 25.7626 179.058 26.9892 177.539 26.9893C176.047 26.9893 174.848 25.7893 174.848 24.2705V7.03125C174.848 5.53908 176.047 4.33984 177.539 4.33984H185.346ZM199.976 4.33984C201.468 4.33984 202.667 5.53908 202.667 7.03125V24.2979C202.667 25.7899 201.468 26.9893 199.976 26.9893C198.484 26.9892 197.258 25.7899 197.258 24.2979V7.03125C197.258 5.53912 198.483 4.33991 199.976 4.33984ZM89.7959 4.39062C95.6046 4.39063 100.348 9.47984 100.348 15.7148V24.2949C100.348 25.7871 99.1487 26.9863 97.6299 26.9863L97.3799 26.9727C96.0158 26.8354 94.9385 25.6938 94.9385 24.2949V15.7148C94.9383 12.4375 92.6469 9.79981 89.7959 9.7998C86.9449 9.7998 84.6535 12.4642 84.6533 15.7148V24.2949C84.6533 25.787 83.4276 26.9862 81.9355 26.9863C80.4434 26.9863 79.2441 25.7871 79.2441 24.2949V15.7148C79.2443 9.45319 83.9872 4.39062 89.7959 4.39062ZM216.71 4.39062C222.545 4.39062 227.262 9.47984 227.262 15.7148V24.2949C227.262 25.7871 226.062 26.9863 224.57 26.9863C223.078 26.9862 221.853 25.787 221.853 24.2949V15.7148C221.852 12.4375 219.534 9.7998 216.71 9.7998C213.886 9.79983 211.568 12.4642 211.567 15.7148V24.2949C211.567 25.787 210.342 26.9863 208.85 26.9863C207.357 26.9863 206.158 25.7871 206.158 24.2949V15.7148C206.158 9.45321 210.875 4.39065 216.71 4.39062ZM109.25 21.6064H114.339C117.163 21.6064 119.481 18.9415 119.481 15.6641C119.481 12.3868 117.163 9.72266 114.339 9.72266H109.25V21.6064ZM157.795 15.9043H162.91C165.175 15.9043 165.948 15.1314 165.948 12.8398C165.948 10.5483 165.175 9.77539 162.91 9.77539H157.795V15.9043ZM180.23 15.9043H185.319C187.611 15.9043 188.357 15.1314 188.357 12.8398C188.357 10.5483 187.611 9.77539 185.319 9.77539H180.23V15.9043ZM20.9434 0C23.741 0.000251941 26.0322 2.26554 26.0322 5.08984C26.032 9.96583 22.5944 14.0422 18.0381 15.0547L17.7988 15.1084C16.8131 15.1084 15.9869 14.3624 15.8535 13.4033V5.08984C15.8535 2.26538 18.1455 0 20.9434 0Z" fill="#0D74B4"/>
</svg>
